<svg xmlns="http://www.w3.org/2000/svg" viewBox="0 0 212.6 221.1" xmlns:v="https://vecta.io/nano"><path d="M161.5 55.3c-5.8-3.3-13.2-5-20.8-5.3-.5-4.2-3.6-8.2-9.3-11.4-12.6-7-32.9-7-45.4 0L44.8 61.4c-6 3.3-6 12 0 15.3l61.5 35.2 55-31.5c12.2-6.8 12.4-18.2.2-25.1zM61 69.1l39.7-22c2-1.1 4.7-1.7 7.4-1.7s5.4.6 7.4 1.7c4 2.2 4.1 5.7.4 8-.1.1-.2.1-.3.2l-39.7 22L61 69.1zm84.8 3.1l-39.7 22L91.3 86 131 64c2-1.1 4.7-1.7 7.4-1.7s5.4.6 7.4 1.7c4.1 2.2 4.1 5.9 0 8.2z" fill="#48a529"/><path d="M178.2 95.1c0-13.7-9.4-19.4-21-12.7l-50.9 29.4V179c0 6.7 7.3 11 13.1 7.6l37.7-21.8c11.6-6.7 21-23.3 21-37 0-6.3-2-10.9-5.2-13.4 3.4-6.2 5.3-13 5.3-19.3zm-58.1 25.2l36.7-21.2c1.9-1.1 3.6-1.2 4.8-.4s2 2.3 2 4.6c0 4.3-2.9 9.5-6.5 11.8-.1.1-.2.1-.3.2l-36.7 21.2v-16.2zm36.8 28.2l-36.7 21.2v-16.2l36.7-21.2c1.9-1.1 3.6-1.2 4.8-.4s2 2.3 2 4.6c0 4.4-3 9.8-6.8 12z" fill="#6cddb4"/><path d="M39.6 114.5c-3.2 2.5-5.2 7.1-5.2 13.4 0 13.7 9.4 30.3 21 37l37.7 21.8c5.8 3.4 13.1-.8 13.1-7.6v-67.2L55.5 82.4c-11.6-6.7-21-1-21 12.7-.1 6.3 1.9 13.1 5.1 19.4zm52.9 22l-36.7-21.2c-.1-.1-.2-.1-.3-.2-3.6-2.3-6.5-7.5-6.5-11.8 0-2.2.8-3.8 2-4.6s3-.7 4.8.4l36.7 21.2v16.2zm-43.6 0c0-2.2.8-3.8 2-4.6 1.2-.7 3-.7 4.8.4l36.7 21.2v16.2l-36.7-21.2c-3.7-2.2-6.8-7.6-6.8-12z" fill="#005957"/></svg>